name rise44.9368peak50.754fall52.0217.mot
datacolumns 19
datarows 33
range 19.45659600000000 19.50993300000000
endheader
time	ground_force1_vx	ground_force1_vy	ground_force1_vz	ground_force1_px	ground_force1_py	ground_force1_pz	ground_force2_vx	ground_force2_vy	ground_force2_vz	ground_force2_px	ground_force2_py	ground_force2_pz	ground_torque1_x	ground_torque1_y	ground_torque1_z	ground_torque2_x	ground_torque2_y	ground_torque2_z	
19.45659600000000	62.71618100000000	833.40287200000000	68.31670400000000	0.34477400000000	0.00000000000000	0.16677500000000	0.00000000000000	0.00000000000000	0.00000000000000	0.00000000000000	0.00000000000000	0.00000000000000	0.00000000000000	25.16108200000000	0.00000000000000	0.00000000000000	0.00000000000000	0.00000000000000	
19.45826100000000	61.80532400000000	833.75543200000004	68.34032900000000	0.34404200000000	0.00000000000000	0.16681400000000	0.00000000000000	0.00000000000000	0.00000000000000	0.00000000000000	0.00000000000000	0.00000000000000	0.00000000000000	25.34809400000000	0.00000000000000	0.00000000000000	0.00000000000000	0.00000000000000	
19.45992700000000	60.89021600000000	833.89292200000000	68.35036400000000	0.34330600000000	0.00000000000000	0.16685700000000	0.00000000000000	0.00000000000000	0.00000000000000	0.00000000000000	0.00000000000000	0.00000000000000	0.00000000000000	25.52760300000000	0.00000000000000	0.00000000000000	0.00000000000000	0.00000000000000	
19.46159800000000	59.97216300000000	833.81958099999997	68.34703399999999	0.34256300000000	0.00000000000000	0.16690200000000	0.00000000000000	0.00000000000000	0.00000000000000	0.00000000000000	0.00000000000000	0.00000000000000	0.00000000000000	25.69934700000000	0.00000000000000	0.00000000000000	0.00000000000000	0.00000000000000	
19.46326200000000	59.05240900000000	833.54001900000003	68.33054799999999	0.34181200000000	0.00000000000000	0.16695000000000	0.00000000000000	0.00000000000000	0.00000000000000	0.00000000000000	0.00000000000000	0.00000000000000	0.00000000000000	25.86306500000000	0.00000000000000	0.00000000000000	0.00000000000000	0.00000000000000	
19.46493100000000	58.13213400000000	833.05920100000003	68.30109899999999	0.34105300000000	0.00000000000000	0.16700200000000	0.00000000000000	0.00000000000000	0.00000000000000	0.00000000000000	0.00000000000000	0.00000000000000	0.00000000000000	26.01850000000000	0.00000000000000	0.00000000000000	0.00000000000000	0.00000000000000	
19.46659500000000	57.21245800000000	832.38243999999997	68.25886700000000	0.34028300000000	0.00000000000000	0.16705600000000	0.00000000000000	0.00000000000000	0.00000000000000	0.00000000000000	0.00000000000000	0.00000000000000	0.00000000000000	26.16539800000000	0.00000000000000	0.00000000000000	0.00000000000000	0.00000000000000	
19.46825900000000	56.29443600000000	831.51537499999995	68.20402600000000	0.33950100000000	0.00000000000000	0.16711400000000	0.00000000000000	0.00000000000000	0.00000000000000	0.00000000000000	0.00000000000000	0.00000000000000	0.00000000000000	26.30351500000000	0.00000000000000	0.00000000000000	0.00000000000000	0.00000000000000	
19.46993400000000	55.37906300000000	830.46396300000004	68.13674000000000	0.33870600000000	0.00000000000000	0.16717600000000	0.00000000000000	0.00000000000000	0.00000000000000	0.00000000000000	0.00000000000000	0.00000000000000	0.00000000000000	26.43261800000000	0.00000000000000	0.00000000000000	0.00000000000000	0.00000000000000	
19.47159200000000	54.46727000000000	829.23445700000002	68.05717199999999	0.33789600000000	0.00000000000000	0.16724100000000	0.00000000000000	0.00000000000000	0.00000000000000	0.00000000000000	0.00000000000000	0.00000000000000	0.00000000000000	26.55248500000000	0.00000000000000	0.00000000000000	0.00000000000000	0.00000000000000	
19.47326500000000	53.55993100000000	827.83338800000001	67.96548300000001	0.33706900000000	0.00000000000000	0.16730900000000	0.00000000000000	0.00000000000000	0.00000000000000	0.00000000000000	0.00000000000000	0.00000000000000	0.00000000000000	26.66291000000000	0.00000000000000	0.00000000000000	0.00000000000000	0.00000000000000	
19.47492700000000	52.65785800000000	826.26754900000003	67.86183600000000	0.33622500000000	0.00000000000000	0.16738100000000	0.00000000000000	0.00000000000000	0.00000000000000	0.00000000000000	0.00000000000000	0.00000000000000	0.00000000000000	26.76370400000000	0.00000000000000	0.00000000000000	0.00000000000000	0.00000000000000	
19.47659600000000	51.76180500000000	824.54397400000005	67.74639999999999	0.33536100000000	0.00000000000000	0.16745600000000	0.00000000000000	0.00000000000000	0.00000000000000	0.00000000000000	0.00000000000000	0.00000000000000	0.00000000000000	26.85470000000000	0.00000000000000	0.00000000000000	0.00000000000000	0.00000000000000	
19.47827100000000	50.87246900000000	822.66991599999994	67.61935000000000	0.33447700000000	0.00000000000000	0.16753500000000	0.00000000000000	0.00000000000000	0.00000000000000	0.00000000000000	0.00000000000000	0.00000000000000	0.00000000000000	26.93575000000000	0.00000000000000	0.00000000000000	0.00000000000000	0.00000000000000	
19.47993200000000	49.99049300000000	820.65282500000001	67.48087000000000	0.33357200000000	0.00000000000000	0.16761800000000	0.00000000000000	0.00000000000000	0.00000000000000	0.00000000000000	0.00000000000000	0.00000000000000	0.00000000000000	27.00673100000000	0.00000000000000	0.00000000000000	0.00000000000000	0.00000000000000	
19.48160100000000	49.11646600000000	818.50032999999996	67.33115700000000	0.33264300000000	0.00000000000000	0.16770500000000	0.00000000000000	0.00000000000000	0.00000000000000	0.00000000000000	0.00000000000000	0.00000000000000	0.00000000000000	27.06754400000000	0.00000000000000	0.00000000000000	0.00000000000000	0.00000000000000	
19.48326200000000	48.25092500000000	816.22021199999995	67.17042100000000	0.33169100000000	0.00000000000000	0.16779500000000	0.00000000000000	0.00000000000000	0.00000000000000	0.00000000000000	0.00000000000000	0.00000000000000	0.00000000000000	27.11811900000000	0.00000000000000	0.00000000000000	0.00000000000000	0.00000000000000	
19.48493200000000	47.39435700000000	813.82038499999999	66.99889000000000	0.33071300000000	0.00000000000000	0.16788900000000	0.00000000000000	0.00000000000000	0.00000000000000	0.00000000000000	0.00000000000000	0.00000000000000	0.00000000000000	27.15841300000000	0.00000000000000	0.00000000000000	0.00000000000000	0.00000000000000	
19.48660100000000	46.54720400000000	811.30887099999995	66.81680799999999	0.32970900000000	0.00000000000000	0.16798700000000	0.00000000000000	0.00000000000000	0.00000000000000	0.00000000000000	0.00000000000000	0.00000000000000	0.00000000000000	27.18841200000000	0.00000000000000	0.00000000000000	0.00000000000000	0.00000000000000	
19.48826000000000	45.70985800000000	808.69377499999996	66.62443700000000	0.32867800000000	0.00000000000000	0.16808900000000	0.00000000000000	0.00000000000000	0.00000000000000	0.00000000000000	0.00000000000000	0.00000000000000	0.00000000000000	27.20813400000000	0.00000000000000	0.00000000000000	0.00000000000000	0.00000000000000	
19.48993400000000	44.88267300000000	805.98326599999996	66.42206299999999	0.32762000000000	0.00000000000000	0.16819500000000	0.00000000000000	0.00000000000000	0.00000000000000	0.00000000000000	0.00000000000000	0.00000000000000	0.00000000000000	27.21762600000000	0.00000000000000	0.00000000000000	0.00000000000000	0.00000000000000	
19.49159600000000	44.06596000000000	803.18555000000003	66.20999000000000	0.32653300000000	0.00000000000000	0.16830400000000	0.00000000000000	0.00000000000000	0.00000000000000	0.00000000000000	0.00000000000000	0.00000000000000	0.00000000000000	27.21696900000000	0.00000000000000	0.00000000000000	0.00000000000000	0.00000000000000	
19.49326700000000	43.25999100000000	800.30884800000001	65.98854600000000	0.32541700000000	0.00000000000000	0.16841700000000	0.00000000000000	0.00000000000000	0.00000000000000	0.00000000000000	0.00000000000000	0.00000000000000	0.00000000000000	27.20627500000000	0.00000000000000	0.00000000000000	0.00000000000000	0.00000000000000	
19.49492600000000	42.46500300000000	797.36137499999995	65.75808300000000	0.32427200000000	0.00000000000000	0.16853400000000	0.00000000000000	0.00000000000000	0.00000000000000	0.00000000000000	0.00000000000000	0.00000000000000	0.00000000000000	27.18568700000000	0.00000000000000	0.00000000000000	0.00000000000000	0.00000000000000	
19.49659700000000	41.68119800000000	794.35131300000000	65.51897400000000	0.32309700000000	0.00000000000000	0.16865400000000	0.00000000000000	0.00000000000000	0.00000000000000	0.00000000000000	0.00000000000000	0.00000000000000	0.00000000000000	27.15538100000000	0.00000000000000	0.00000000000000	0.00000000000000	0.00000000000000	
19.49826700000000	40.90874800000000	791.28679299999999	65.27161700000001	0.32189300000000	0.00000000000000	0.16877800000000	0.00000000000000	0.00000000000000	0.00000000000000	0.00000000000000	0.00000000000000	0.00000000000000	0.00000000000000	27.11556600000000	0.00000000000000	0.00000000000000	0.00000000000000	0.00000000000000	
19.49992900000000	40.14779500000000	788.17587100000003	65.01643300000001	0.32065800000000	0.00000000000000	0.16890600000000	0.00000000000000	0.00000000000000	0.00000000000000	0.00000000000000	0.00000000000000	0.00000000000000	0.00000000000000	27.06647900000000	0.00000000000000	0.00000000000000	0.00000000000000	0.00000000000000	
19.50159500000000	39.39845200000000	785.02650800000004	64.75386500000000	0.31939400000000	0.00000000000000	0.16903700000000	0.00000000000000	0.00000000000000	0.00000000000000	0.00000000000000	0.00000000000000	0.00000000000000	0.00000000000000	27.00839000000000	0.00000000000000	0.00000000000000	0.00000000000000	0.00000000000000	
19.50327000000000	38.66081000000000	781.84654799999998	64.48437900000000	0.31810100000000	0.00000000000000	0.16917100000000	0.00000000000000	0.00000000000000	0.00000000000000	0.00000000000000	0.00000000000000	0.00000000000000	0.00000000000000	26.94159800000000	0.00000000000000	0.00000000000000	0.00000000000000	0.00000000000000	
19.50492700000000	37.93493400000000	778.64370199999996	64.20846200000000	0.31677900000000	0.00000000000000	0.16930800000000	0.00000000000000	0.00000000000000	0.00000000000000	0.00000000000000	0.00000000000000	0.00000000000000	0.00000000000000	26.86642800000000	0.00000000000000	0.00000000000000	0.00000000000000	0.00000000000000	
19.50659400000000	37.22086800000000	775.42552400000000	63.92662000000000	0.31542800000000	0.00000000000000	0.16944900000000	0.00000000000000	0.00000000000000	0.00000000000000	0.00000000000000	0.00000000000000	0.00000000000000	0.00000000000000	26.78323600000000	0.00000000000000	0.00000000000000	0.00000000000000	0.00000000000000	
19.50826700000000	36.51863800000000	772.19939499999998	63.63938100000000	0.31405100000000	0.00000000000000	0.16959300000000	0.00000000000000	0.00000000000000	0.00000000000000	0.00000000000000	0.00000000000000	0.00000000000000	0.00000000000000	26.69240000000000	0.00000000000000	0.00000000000000	0.00000000000000	0.00000000000000	
19.50993300000000	35.82825000000000	768.97251000000006	63.34728500000000	0.31264700000000	0.00000000000000	0.16973900000000	0.00000000000000	0.00000000000000	0.00000000000000	0.00000000000000	0.00000000000000	0.00000000000000	0.00000000000000	26.59432500000000	0.00000000000000	0.00000000000000	0.00000000000000	0.00000000000000	
